<?xml version="1.0" encoding="UTF-8" standalone="no"?><svg xmlns="http://www.w3.org/2000/svg" xmlns:xlink="http://www.w3.org/1999/xlink" contentScriptType="application/ecmascript" contentStyleType="text/css" height="835px" preserveAspectRatio="none" style="width:1284px;height:835px;" version="1.1" viewBox="0 0 1284 835" width="1284px" zoomAndPan="magnify"><defs><filter height="300%" id="f1c7riwd16n7la" width="300%" x="-1" y="-1"><feGaussianBlur result="blurOut" stdDeviation="2.0"/><feColorMatrix in="blurOut" result="blurOut2" type="matrix" values="0 0 0 0 0 0 0 0 0 0 0 0 0 0 0 0 0 0 .4 0"/><feOffset dx="4.0" dy="4.0" in="blurOut2" result="blurOut3"/><feBlend in="SourceGraphic" in2="blurOut3" mode="normal"/></filter></defs><g><text fill="#000000" font-family="sans-serif" font-size="18" lengthAdjust="spacing" textLength="334" x="468.5" y="18.6855">AWS Toolkit for Visual Studio Architecture</text><!--MD5=[2236ab0e2cf3152720819620cb8a0443]
cluster supportlibs--><rect fill="#FFFFFF" filter="url(#f1c7riwd16n7la)" height="100" style="stroke:#000000;stroke-width:1.5;" width="586" x="686" y="585.6406"/><path d="M921,585.6406 L921,596.25 L911,606.25 L686,606.25 " fill="none" style="stroke:#000000;stroke-width:1.5;"/><text fill="#000000" font-family="sans-serif" font-size="14" font-weight="bold" lengthAdjust="spacing" textLength="225" x="689" y="601.1738">3rd party packages and libraries</text><!--MD5=[19e3f5b1c52c0a5793add3aa910a493e]
cluster toolkitSolution--><polygon fill="#FFFFFF" filter="url(#f1c7riwd16n7la)" points="16,38.6406,26,28.6406,662,28.6406,662,699.6406,652,709.6406,16,709.6406,16,38.6406" style="stroke:#000000;stroke-width:1.5;"/><line style="stroke:#000000;stroke-width:1.5;" x1="652" x2="662" y1="38.6406" y2="28.6406"/><line style="stroke:#000000;stroke-width:1.5;" x1="16" x2="652" y1="38.6406" y2="38.6406"/><line style="stroke:#000000;stroke-width:1.5;" x1="652" x2="652" y1="38.6406" y2="709.6406"/><text fill="#000000" font-family="sans-serif" font-size="14" font-weight="bold" lengthAdjust="spacing" textLength="88" x="291" y="56.1738">Toolkit Code</text><!--MD5=[b28fcb397abe995d6d4652e4c54b3002]
cluster common--><rect fill="#FFFFFF" filter="url(#f1c7riwd16n7la)" height="231" style="stroke:#000000;stroke-width:1.5;" width="185" x="72" y="77.6406"/><path d="M251,77.6406 L251,88.25 L241,98.25 L72,98.25 " fill="none" style="stroke:#000000;stroke-width:1.5;"/><text fill="#000000" font-family="sans-serif" font-size="14" font-weight="bold" lengthAdjust="spacing" textLength="169" x="75" y="93.1738">Common Class Libraries</text><!--MD5=[6ad7c0b688d9e902153dd4de2b6da276]
cluster plugin--><rect fill="#FFFFFF" filter="url(#f1c7riwd16n7la)" height="211" style="stroke:#000000;stroke-width:1.5;" width="236" x="53" y="341.6406"/><path d="M162,341.6406 L162,352.25 L152,362.25 L53,362.25 " fill="none" style="stroke:#000000;stroke-width:1.5;"/><text fill="#000000" font-family="sans-serif" font-size="14" font-weight="bold" lengthAdjust="spacing" textLength="99" x="56" y="357.1738">Sample Plugin</text><!--MD5=[54de5124b340cddaa092639d041946c3]
cluster pluginWithDep--><rect fill="#FFFFFF" filter="url(#f1c7riwd16n7la)" height="233" style="stroke:#000000;stroke-width:1.5;" width="325" x="313" y="208.6406"/><path d="M632,208.6406 L632,219.25 L622,229.25 L313,229.25 " fill="none" style="stroke:#000000;stroke-width:1.5;"/><text fill="#000000" font-family="sans-serif" font-size="14" font-weight="bold" lengthAdjust="spacing" textLength="309" x="316" y="224.1738">Sample Plugin with Inter-plugin dependency</text><!--MD5=[b3ebedc3e9cee58b1ee5f3741be1ac63]
cluster teplugin--><polygon fill="#FFFFFF" filter="url(#f1c7riwd16n7la)" points="113,585.6406,276,585.6406,283,609.25,459,609.25,459,685.6406,113,685.6406,113,585.6406" style="stroke:#000000;stroke-width:1.5;"/><line style="stroke:#000000;stroke-width:1.5;" x1="113" x2="283" y1="609.25" y2="609.25"/><text fill="#000000" font-family="sans-serif" font-size="14" font-weight="bold" lengthAdjust="spacing" textLength="157" x="117" y="602.1738">Team Explorer Plugins</text><!--MD5=[1740c1a64e45e93114a92a75bcdbd02f]
entity vssdk--><rect fill="#FEFECE" filter="url(#f1c7riwd16n7la)" height="47.6094" style="stroke:#A80036;stroke-width:1.5;" width="214" x="869" y="621.6406"/><rect fill="#FEFECE" height="10" style="stroke:#A80036;stroke-width:1.5;" width="15" x="1063" y="626.6406"/><rect fill="#FEFECE" height="2" style="stroke:#A80036;stroke-width:1.5;" width="4" x="1061" y="628.6406"/><rect fill="#FEFECE" height="2" style="stroke:#A80036;stroke-width:1.5;" width="4" x="1061" y="632.6406"/><text fill="#000000" font-family="sans-serif" font-size="14" lengthAdjust="spacing" textLength="174" x="884" y="656.1738">Visual Studio SDK (VSSDK)</text><!--MD5=[c1f20c4c6df2feb02f73294279fb123a]
entity awssdk--><rect fill="#FEFECE" filter="url(#f1c7riwd16n7la)" height="47.6094" style="stroke:#A80036;stroke-width:1.5;" width="138" x="1118" y="621.6406"/><rect fill="#FEFECE" height="10" style="stroke:#A80036;stroke-width:1.5;" width="15" x="1236" y="626.6406"/><rect fill="#FEFECE" height="2" style="stroke:#A80036;stroke-width:1.5;" width="4" x="1234" y="628.6406"/><rect fill="#FEFECE" height="2" style="stroke:#A80036;stroke-width:1.5;" width="4" x="1234" y="632.6406"/><text fill="#000000" font-family="sans-serif" font-size="14" lengthAdjust="spacing" textLength="98" x="1133" y="656.1738">AWS .NET SDK</text><!--MD5=[b913af735b47b7591cebc5d53a2a01a9]
entity teamExplorer--><rect fill="#FEFECE" filter="url(#f1c7riwd16n7la)" height="47.6094" style="stroke:#A80036;stroke-width:1.5;" width="132" x="702" y="621.6406"/><rect fill="#FEFECE" height="10" style="stroke:#A80036;stroke-width:1.5;" width="15" x="814" y="626.6406"/><rect fill="#FEFECE" height="2" style="stroke:#A80036;stroke-width:1.5;" width="4" x="812" y="628.6406"/><rect fill="#FEFECE" height="2" style="stroke:#A80036;stroke-width:1.5;" width="4" x="812" y="632.6406"/><text fill="#000000" font-family="sans-serif" font-size="14" lengthAdjust="spacing" textLength="92" x="717" y="656.1738">Team Explorer</text><!--MD5=[0e4e944c0e0409b9d487ab1c375a0904]
entity AWSToolkitPackage--><rect fill="#FEFECE" filter="url(#f1c7riwd16n7la)" height="47.6094" style="stroke:#A80036;stroke-width:1.5;" width="168" x="478" y="621.6406"/><rect fill="#FEFECE" height="10" style="stroke:#A80036;stroke-width:1.5;" width="15" x="626" y="626.6406"/><rect fill="#FEFECE" height="2" style="stroke:#A80036;stroke-width:1.5;" width="4" x="624" y="628.6406"/><rect fill="#FEFECE" height="2" style="stroke:#A80036;stroke-width:1.5;" width="4" x="624" y="632.6406"/><text fill="#000000" font-family="sans-serif" font-size="14" lengthAdjust="spacing" textLength="128" x="493" y="656.1738">AWSToolkitPackage</text><!--MD5=[3751c4bbd997a6087c794b74b09d2016]
entity awsToolkit--><rect fill="#FEFECE" filter="url(#f1c7riwd16n7la)" height="47.6094" style="stroke:#A80036;stroke-width:1.5;" width="113" x="107.5" y="244.6406"/><rect fill="#FEFECE" height="10" style="stroke:#A80036;stroke-width:1.5;" width="15" x="200.5" y="249.6406"/><rect fill="#FEFECE" height="2" style="stroke:#A80036;stroke-width:1.5;" width="4" x="198.5" y="251.6406"/><rect fill="#FEFECE" height="2" style="stroke:#A80036;stroke-width:1.5;" width="4" x="198.5" y="255.6406"/><text fill="#000000" font-family="sans-serif" font-size="14" lengthAdjust="spacing" textLength="73" x="122.5" y="279.1738">AWSToolkit</text><!--MD5=[9061310ad6f8d2100e307d8d1f43b385]
entity awsToolkitUtil--><rect fill="#FEFECE" filter="url(#f1c7riwd16n7la)" height="47.6094" style="stroke:#A80036;stroke-width:1.5;" width="136" x="96" y="113.6406"/><rect fill="#FEFECE" height="10" style="stroke:#A80036;stroke-width:1.5;" width="15" x="212" y="118.6406"/><rect fill="#FEFECE" height="2" style="stroke:#A80036;stroke-width:1.5;" width="4" x="210" y="120.6406"/><rect fill="#FEFECE" height="2" style="stroke:#A80036;stroke-width:1.5;" width="4" x="210" y="124.6406"/><text fill="#000000" font-family="sans-serif" font-size="14" lengthAdjust="spacing" textLength="96" x="111" y="148.1738">AWSToolkit.Util</text><!--MD5=[f34869921caae027ab6a17c63c79bdfa]
entity ec2Interface--><rect fill="#FEFECE" filter="url(#f1c7riwd16n7la)" height="47.6094" style="stroke:#A80036;stroke-width:1.5;" width="203" x="69.5" y="377.6406"/><rect fill="#FEFECE" height="10" style="stroke:#A80036;stroke-width:1.5;" width="15" x="252.5" y="382.6406"/><rect fill="#FEFECE" height="2" style="stroke:#A80036;stroke-width:1.5;" width="4" x="250.5" y="384.6406"/><rect fill="#FEFECE" height="2" style="stroke:#A80036;stroke-width:1.5;" width="4" x="250.5" y="388.6406"/><text fill="#000000" font-family="sans-serif" font-size="14" lengthAdjust="spacing" textLength="163" x="84.5" y="412.1738">AWSToolkit.EC2.Interface</text><!--MD5=[37e53c992d02dbef82096056dafaf252]
entity ec2--><rect fill="#FEFECE" filter="url(#f1c7riwd16n7la)" height="47.6094" style="stroke:#A80036;stroke-width:1.5;" width="144" x="121" y="488.6406"/><rect fill="#FEFECE" height="10" style="stroke:#A80036;stroke-width:1.5;" width="15" x="245" y="493.6406"/><rect fill="#FEFECE" height="2" style="stroke:#A80036;stroke-width:1.5;" width="4" x="243" y="495.6406"/><rect fill="#FEFECE" height="2" style="stroke:#A80036;stroke-width:1.5;" width="4" x="243" y="499.6406"/><text fill="#000000" font-family="sans-serif" font-size="14" lengthAdjust="spacing" textLength="104" x="136" y="523.1738">AWSToolkit.EC2</text><!--MD5=[4223c70a09849e4c943df00fe9346af4]
entity beanstalkInterface--><rect fill="#FEFECE" filter="url(#f1c7riwd16n7la)" height="47.6094" style="stroke:#A80036;stroke-width:1.5;" width="279" x="335.5" y="244.6406"/><rect fill="#FEFECE" height="10" style="stroke:#A80036;stroke-width:1.5;" width="15" x="594.5" y="249.6406"/><rect fill="#FEFECE" height="2" style="stroke:#A80036;stroke-width:1.5;" width="4" x="592.5" y="251.6406"/><rect fill="#FEFECE" height="2" style="stroke:#A80036;stroke-width:1.5;" width="4" x="592.5" y="255.6406"/><text fill="#000000" font-family="sans-serif" font-size="14" lengthAdjust="spacing" textLength="239" x="350.5" y="279.1738">AWSToolkit.ElasticBeanstalk.Interface</text><!--MD5=[7ed1acd40d959a7a734f6389c2b738bd]
entity beanstalk--><rect fill="#FEFECE" filter="url(#f1c7riwd16n7la)" height="47.6094" style="stroke:#A80036;stroke-width:1.5;" width="220" x="365" y="377.6406"/><rect fill="#FEFECE" height="10" style="stroke:#A80036;stroke-width:1.5;" width="15" x="565" y="382.6406"/><rect fill="#FEFECE" height="2" style="stroke:#A80036;stroke-width:1.5;" width="4" x="563" y="384.6406"/><rect fill="#FEFECE" height="2" style="stroke:#A80036;stroke-width:1.5;" width="4" x="563" y="388.6406"/><text fill="#000000" font-family="sans-serif" font-size="14" lengthAdjust="spacing" textLength="180" x="380" y="412.1738">AWSToolkit.ElasticBeanstalk</text><!--MD5=[29f67cd586da424b7fbd8bf0e3d61906]
entity teXX--><rect fill="#FEFECE" filter="url(#f1c7riwd16n7la)" height="47.6094" style="stroke:#A80036;stroke-width:1.5;" width="313" x="129.5" y="621.6406"/><rect fill="#FEFECE" height="10" style="stroke:#A80036;stroke-width:1.5;" width="15" x="422.5" y="626.6406"/><rect fill="#FEFECE" height="2" style="stroke:#A80036;stroke-width:1.5;" width="4" x="420.5" y="628.6406"/><rect fill="#FEFECE" height="2" style="stroke:#A80036;stroke-width:1.5;" width="4" x="420.5" y="632.6406"/><text fill="#000000" font-family="sans-serif" font-size="14" lengthAdjust="spacing" textLength="273" x="144.5" y="656.1738">AWSToolkit.CodeCommitTeamExplorer.vXX</text><!--MD5=[507948c1688a9f375792d9376f7950f2]
entity vs--><rect fill="#FEFECE" filter="url(#f1c7riwd16n7la)" height="47.6094" style="stroke:#A80036;stroke-width:1.5;" width="122" x="386" y="773.6406"/><rect fill="#FEFECE" height="10" style="stroke:#A80036;stroke-width:1.5;" width="15" x="488" y="778.6406"/><rect fill="#FEFECE" height="2" style="stroke:#A80036;stroke-width:1.5;" width="4" x="486" y="780.6406"/><rect fill="#FEFECE" height="2" style="stroke:#A80036;stroke-width:1.5;" width="4" x="486" y="784.6406"/><text fill="#000000" font-family="sans-serif" font-size="14" lengthAdjust="spacing" textLength="82" x="401" y="808.1738">Visual Studio</text><!--MD5=[1e2a8b9d6b2f41b0e65ecbe96a254b66]
reverse link awsToolkitUtil to awsToolkit--><path d="M164,166.8026 C164,190.0236 164,222.5696 164,244.3426 " fill="none" id="awsToolkitUtil-backto-awsToolkit" style="stroke:#A80036;stroke-width:1.0;"/><polygon fill="#A80036" points="164,161.7036,160,170.7036,164,166.7036,168,170.7036,164,161.7036" style="stroke:#A80036;stroke-width:1.0;"/><!--MD5=[67e21117c093bd9a96b00a561bd1d423]
reverse link ec2Interface to ec2--><path d="M176.659,430.6786 C180.284,448.6376 184.93,471.6576 188.341,488.5576 " fill="none" id="ec2Interface-backto-ec2" style="stroke:#A80036;stroke-width:1.0;"/><polygon fill="#A80036" points="175.666,425.7566,173.5276,435.3705,176.6562,430.6576,181.3691,433.7862,175.666,425.7566" style="stroke:#A80036;stroke-width:1.0;"/><!--MD5=[3bce6d5826a5153cc3a39b8b1a3ba4f1]
reverse link awsToolkit to ec2--><path d="M102.454,290.3876 C82.7986,300.2616 63.2434,314.2666 52,333.6406 C26.1229,378.2316 23.8212,406.4676 52,449.6406 C67.566,473.4896 94.5833,488.2256 120.83,497.3036 " fill="none" id="awsToolkit-backto-ec2" style="stroke:#A80036;stroke-width:1.0;"/><polygon fill="#A80036" points="107.449,287.9656,97.6056,288.2934,102.95,290.1472,101.0962,295.4917,107.449,287.9656" style="stroke:#A80036;stroke-width:1.0;"/><!--MD5=[8dd9f3f77595134d677c28508cb65cb6]
link ec2 to awssdk--><path d="M265.265,518.4566 C478.57,532.7056 1091.25,573.9036 1101,577.6406 C1123.65,586.3226 1145.17,603.0996 1161.02,617.6936 " fill="none" id="ec2-to-awssdk" style="stroke:#A80036;stroke-width:1.0;"/><polygon fill="#A80036" points="1164.92,621.3496,1161.0799,612.2803,1161.2685,617.934,1155.6148,618.1226,1164.92,621.3496" style="stroke:#A80036;stroke-width:1.0;"/><!--MD5=[720da1744c05c14d5abe3f62d1fccf6b]
reverse link beanstalkInterface to beanstalk--><path d="M475,297.9646 C475,321.6796 475,355.1166 475,377.3126 " fill="none" id="beanstalkInterface-backto-beanstalk" style="stroke:#A80036;stroke-width:1.0;"/><polygon fill="#A80036" points="475,292.7596,471,301.7596,475,297.7596,479,301.7596,475,292.7596" style="stroke:#A80036;stroke-width:1.0;"/><!--MD5=[9fe5beee8dfe90735ee0fdc6c9e5f318]
link beanstalk to ec2Interface--><path d="M364.67,401.6406 C335.637,401.6406 306.604,401.6406 277.57,401.6406 " fill="none" id="beanstalk-to-ec2Interface" style="stroke:#A80036;stroke-width:1.0;"/><polygon fill="#A80036" points="272.531,401.6406,281.531,405.6406,277.531,401.6406,281.531,397.6406,272.531,401.6406" style="stroke:#A80036;stroke-width:1.0;"/><!--MD5=[32ebdb6527bcfa188661a2dcd85faa33]
reverse link awsToolkit to beanstalk--><path d="M223.602,294.7466 C280.343,318.6466 365.028,354.3176 420.142,377.5336 " fill="none" id="awsToolkit-backto-beanstalk" style="stroke:#A80036;stroke-width:1.0;"/><polygon fill="#A80036" points="218.885,292.7596,225.6254,299.9406,223.4926,294.7013,228.732,292.5685,218.885,292.7596" style="stroke:#A80036;stroke-width:1.0;"/><!--MD5=[7d44325c24f28b7baf424f26bba8d968]
link beanstalk to awssdk--><path d="M585.192,420.0336 C714.067,443.3516 931.358,492.0606 1101,577.6406 C1122.03,588.2496 1142.94,604.3786 1158.87,618.1526 " fill="none" id="beanstalk-to-awssdk" style="stroke:#A80036;stroke-width:1.0;"/><polygon fill="#A80036" points="1162.81,621.5986,1158.6617,612.666,1159.0438,618.31,1153.3998,618.692,1162.81,621.5986" style="stroke:#A80036;stroke-width:1.0;"/><!--MD5=[b3e6d90ad661bb9b37f1028aa04dffb6]
link teXX to teamExplorer--><path d="M328.403,621.6396 C363.598,603.1746 415.62,579.1736 464.5,569.1406 C503.683,561.0976 605.518,560.1746 644.5,569.1406 C679.353,577.1566 713.486,599.7626 737.003,618.3366 " fill="none" id="teXX-to-teamExplorer" style="stroke:#A80036;stroke-width:1.0;"/><polygon fill="#A80036" points="740.977,621.5166,736.4491,612.7703,737.0731,618.3926,731.4507,619.0166,740.977,621.5166" style="stroke:#A80036;stroke-width:1.0;"/><!--MD5=[158b828a3761782863ef421ad78119c5]
reverse link AWSToolkitPackage to vs--><path d="M541.16,673.8236 C519.377,702.2356 485.554,746.3531 464.926,773.2584 " fill="none" id="AWSToolkitPackage-backto-vs" style="stroke:#A80036;stroke-width:1.0;stroke-dasharray:7.0,7.0;"/><polygon fill="#A80036" points="544.283,669.7496,535.6325,674.458,541.2407,673.7175,541.9811,679.3257,544.283,669.7496" style="stroke:#A80036;stroke-width:1.0;"/><text fill="#000000" font-family="sans-serif" font-size="13" lengthAdjust="spacing" textLength="43" x="502" y="740.1357">creates</text><!--MD5=[6b679baf11fbe05ad3628584cd24aca4]
reverse link teXX to vs--><path d="M314.814,673.4866 C345.39,701.9726 393.201,746.5176 422.168,773.5056 " fill="none" id="teXX-backto-vs" style="stroke:#A80036;stroke-width:1.0;stroke-dasharray:7.0,7.0;"/><polygon fill="#A80036" points="310.803,669.7496,314.6613,678.8113,314.4613,673.158,320.1146,672.958,310.803,669.7496" style="stroke:#A80036;stroke-width:1.0;"/><text fill="#000000" font-family="sans-serif" font-size="13" lengthAdjust="spacing" textLength="43" x="386" y="740.1357">creates</text><!--MD5=[dca44975e4e85878954dee798bd93bb2]
link AWSToolkitPackage to awssdk--><path d="M594.242,621.6076 C621.667,602.8526 662.949,578.4676 703.5,569.1406 C744.648,559.6766 1042.35,559.6766 1083.5,569.1406 C1114.33,576.2306 1142.71,598.8726 1161.92,617.6976 " fill="none" id="AWSToolkitPackage-to-awssdk" style="stroke:#A80036;stroke-width:1.0;"/><polygon fill="#A80036" points="1165.64,621.4066,1162.0896,612.22,1162.0988,617.8768,1156.4419,617.886,1165.64,621.4066" style="stroke:#A80036;stroke-width:1.0;"/><!--MD5=[dd67bcd15d2c67886078e3f06afe18f5]
link AWSToolkitPackage to vssdk--><path d="M594.242,621.6076 C621.667,602.8526 662.949,578.4676 703.5,569.1406 C731.87,562.6156 806.13,562.6156 834.5,569.1406 C872.992,577.9946 912.142,600.4146 939.474,618.7096 " fill="none" id="AWSToolkitPackage-to-vssdk" style="stroke:#A80036;stroke-width:1.0;"/><polygon fill="#A80036" points="943.758,621.6076,938.5459,613.251,939.617,618.8055,934.0625,619.8766,943.758,621.6076" style="stroke:#A80036;stroke-width:1.0;"/><!--MD5=[86e04ebd51967334376340aecf057263]
reverse link beanstalk to AWSToolkitPackage--><path d="M485.065,430.6366 C502.413,478.8916 537.626,576.8426 553.683,621.5066 " fill="none" id="beanstalk-backto-AWSToolkitPackage" style="stroke:#A80036;stroke-width:1.0;"/><polygon fill="#A80036" points="483.342,425.8446,482.623,435.6672,485.0337,430.5497,490.1512,432.9604,483.342,425.8446" style="stroke:#A80036;stroke-width:1.0;"/><!--MD5=[864a0d6ad242ac51ed0fec3256416cfe]
reverse link ec2 to AWSToolkitPackage--><path d="M227.643,539.7676 C240.067,547.8276 254.58,555.8376 269,560.6406 C349.437,587.4346 378.875,549.9286 459,577.6406 C487.023,587.3326 514.981,606.2526 534.683,621.5216 " fill="none" id="ec2-backto-AWSToolkitPackage" style="stroke:#A80036;stroke-width:1.0;"/><polygon fill="#A80036" points="223.165,536.8026,228.4603,545.1068,227.3338,539.5633,232.8773,538.4367,223.165,536.8026" style="stroke:#A80036;stroke-width:1.0;"/><!--MD5=[677c4ce257acdf9e3cacd71edd3742d0]
link AWSToolkitPackage to teXX--><path d="M477.579,645.6406 C467.649,645.6406 457.72,645.6406 447.79,645.6406 " fill="none" id="AWSToolkitPackage-to-teXX" style="stroke:#A80036;stroke-width:1.0;"/><polygon fill="#A80036" points="442.598,645.6406,451.598,649.6406,447.598,645.6406,451.598,641.6406,442.598,645.6406" style="stroke:#A80036;stroke-width:1.0;"/><!--MD5=[5d775caf1fc50942ef050df0a5b24812]
@startuml

title AWS Toolkit for Visual Studio Architecture

component vs as "Visual Studio"

frame supportlibs as "3rd party packages and libraries" {
    component vssdk as "Visual Studio SDK (VSSDK)"
    component awssdk as "AWS .NET SDK"
    component teamExplorer as "Team Explorer"
}

node toolkitSolution as "Toolkit Code" {

    component AWSToolkitPackage

    frame common as "Common Class Libraries" {
        component awsToolkit as "AWSToolkit"
        component awsToolkitUtil as "AWSToolkit.Util"

        awsToolkit -up-> awsToolkitUtil
    }

    frame plugin as "Sample Plugin" {
        component ec2Interface as "AWSToolkit.EC2.Interface"
        component ec2 as "AWSToolkit.EC2"

        ec2 -up-> ec2Interface
        ec2 -up-> awsToolkit
        ec2 -> awssdk
    }

    frame pluginWithDep as "Sample Plugin with Inter-plugin dependency" {
        component beanstalkInterface as "AWSToolkit.ElasticBeanstalk.Interface"
        component beanstalk as "AWSToolkit.ElasticBeanstalk"

        beanstalk -up-> beanstalkInterface
        beanstalk -> ec2Interface
        beanstalk -up-> awsToolkit
        beanstalk -> awssdk
    }


    package teplugin as "Team Explorer Plugins" {
        component teXX as "AWSToolkit.CodeCommitTeamExplorer.vXX"
        teXX -> teamExplorer
    }

}

vs .up.> AWSToolkitPackage: creates
vs .up.> teXX: creates

AWSToolkitPackage -> awssdk
AWSToolkitPackage -> vssdk

AWSToolkitPackage -up-> beanstalk
AWSToolkitPackage -up-> ec2
AWSToolkitPackage -> teXX

@enduml

PlantUML version 1.2021.00(Sun Jan 10 02:25:05 PST 2021)
(GPL source distribution)
Java Runtime: OpenJDK Runtime Environment
JVM: OpenJDK 64-Bit Server VM
Default Encoding: Cp1252
Language: en
Country: US
--></g></svg>