<?xml version="1.0" encoding="UTF-8" standalone="no"?><svg xmlns="http://www.w3.org/2000/svg" xmlns:xlink="http://www.w3.org/1999/xlink" contentScriptType="application/ecmascript" contentStyleType="text/css" height="581px" preserveAspectRatio="none" style="width:1924px;height:581px;" version="1.1" viewBox="0 0 1924 581" width="1924px" zoomAndPan="magnify"><defs><filter height="300%" id="f2ndm6lxfnjx2" width="300%" x="-1" y="-1"><feGaussianBlur result="blurOut" stdDeviation="2.0"/><feColorMatrix in="blurOut" result="blurOut2" type="matrix" values="0 0 0 0 0 0 0 0 0 0 0 0 0 0 0 0 0 0 .4 0"/><feOffset dx="4.0" dy="4.0" in="blurOut2" result="blurOut3"/><feBlend in="SourceGraphic" in2="blurOut3" mode="normal"/></filter></defs><g><text fill="#000000" font-family="sans-serif" font-size="18" lengthAdjust="spacing" textLength="271" x="820.3841" y="18.6855">AWS Toolkit Package References</text><!--MD5=[0e4e944c0e0409b9d487ab1c375a0904]
entity AWSToolkitPackage--><polygon fill="#FEFECE" filter="url(#f2ndm6lxfnjx2)" points="1041.2681,533.6406,1196.2681,533.6406,1203.2681,557.25,1220.2681,557.25,1220.2681,574.25,1041.2681,574.25,1041.2681,533.6406" style="stroke:#000000;stroke-width:1.5;"/><line style="stroke:#000000;stroke-width:1.5;" x1="1041.2681" x2="1203.2681" y1="557.25" y2="557.25"/><text fill="#000000" font-family="sans-serif" font-size="14" font-weight="bold" lengthAdjust="spacing" textLength="137" x="1051.2681" y="551.1738">AWSToolkitPackage</text><!--MD5=[759b062ea9c04ce2857e444be5f188fd]
entity AWSToolkit.VisualStudio.Shared--><polygon fill="#FEFECE" filter="url(#f2ndm6lxfnjx2)" points="285.2711,432.6406,526.2711,432.6406,533.2711,456.25,550.2711,456.25,550.2711,473.25,285.2711,473.25,285.2711,432.6406" style="stroke:#000000;stroke-width:1.5;"/><line style="stroke:#000000;stroke-width:1.5;" x1="285.2711" x2="533.2711" y1="456.25" y2="456.25"/><text fill="#000000" font-family="sans-serif" font-size="14" font-weight="bold" lengthAdjust="spacing" textLength="223" x="295.2711" y="450.1738">AWSToolkit.VisualStudio.Shared</text><!--MD5=[48cbb83e0f640f97d1a909cabe11b84a]
entity AWSToolkit--><polygon fill="#FEFECE" filter="url(#f2ndm6lxfnjx2)" points="357.7711,129.6406,453.7711,129.6406,460.7711,153.25,477.7711,153.25,477.7711,170.25,357.7711,170.25,357.7711,129.6406" style="stroke:#000000;stroke-width:1.5;"/><line style="stroke:#000000;stroke-width:1.5;" x1="357.7711" x2="460.7711" y1="153.25" y2="153.25"/><text fill="#000000" font-family="sans-serif" font-size="14" font-weight="bold" lengthAdjust="spacing" textLength="78" x="367.7711" y="147.1738">AWSToolkit</text><!--MD5=[133bb06ab2a7c47c1b7a90e1c0e455b7]
entity AWSToolkit.Util--><polygon fill="#FEFECE" filter="url(#f2ndm6lxfnjx2)" points="344.2711,28.6406,467.2711,28.6406,474.2711,52.25,491.2711,52.25,491.2711,69.25,344.2711,69.25,344.2711,28.6406" style="stroke:#000000;stroke-width:1.5;"/><line style="stroke:#000000;stroke-width:1.5;" x1="344.2711" x2="474.2711" y1="52.25" y2="52.25"/><text fill="#000000" font-family="sans-serif" font-size="14" font-weight="bold" lengthAdjust="spacing" textLength="105" x="354.2711" y="46.1738">AWSToolkit.Util</text><!--MD5=[4202c036db4f7a0b261815b89b2c7912]
entity AWSToolkit.SQS--><polygon fill="#FEFECE" filter="url(#f2ndm6lxfnjx2)" points="86.271,331.6406,215.271,331.6406,222.271,355.25,239.271,355.25,239.271,372.25,86.271,372.25,86.271,331.6406" style="stroke:#000000;stroke-width:1.5;"/><line style="stroke:#000000;stroke-width:1.5;" x1="86.271" x2="222.271" y1="355.25" y2="355.25"/><text fill="#000000" font-family="sans-serif" font-size="14" font-weight="bold" lengthAdjust="spacing" textLength="111" x="96.271" y="349.1738">AWSToolkit.SQS</text><!--MD5=[4817d34d4eff8dfaadca9757abfa6cb8]
entity AWSToolkit.SQS.Interface--><polygon fill="#FEFECE" filter="url(#f2ndm6lxfnjx2)" points="52.771,230.6406,248.771,230.6406,255.771,254.25,272.771,254.25,272.771,271.25,52.771,271.25,52.771,230.6406" style="stroke:#000000;stroke-width:1.5;"/><line style="stroke:#000000;stroke-width:1.5;" x1="52.771" x2="255.771" y1="254.25" y2="254.25"/><text fill="#000000" font-family="sans-serif" font-size="14" font-weight="bold" lengthAdjust="spacing" textLength="178" x="62.771" y="248.1738">AWSToolkit.SQS.Interface</text><!--MD5=[e273e3a14fe63a6c690a47aaab808ec2]
entity AWSToolkit.SNS--><polygon fill="#FEFECE" filter="url(#f2ndm6lxfnjx2)" points="341.7711,331.6406,469.7711,331.6406,476.7711,355.25,493.7711,355.25,493.7711,372.25,341.7711,372.25,341.7711,331.6406" style="stroke:#000000;stroke-width:1.5;"/><line style="stroke:#000000;stroke-width:1.5;" x1="341.7711" x2="476.7711" y1="355.25" y2="355.25"/><text fill="#000000" font-family="sans-serif" font-size="14" font-weight="bold" lengthAdjust="spacing" textLength="110" x="351.7711" y="349.1738">AWSToolkit.SNS</text><!--MD5=[27d4b7eb0a208695c35c4967c9dded7d]
entity AWSToolkit.SNS.Interface--><polygon fill="#FEFECE" filter="url(#f2ndm6lxfnjx2)" points="308.2711,230.6406,503.2711,230.6406,510.2711,254.25,527.2711,254.25,527.2711,271.25,308.2711,271.25,308.2711,230.6406" style="stroke:#000000;stroke-width:1.5;"/><line style="stroke:#000000;stroke-width:1.5;" x1="308.2711" x2="510.2711" y1="254.25" y2="254.25"/><text fill="#000000" font-family="sans-serif" font-size="14" font-weight="bold" lengthAdjust="spacing" textLength="177" x="318.2711" y="248.1738">AWSToolkit.SNS.Interface</text><!--MD5=[247069d24c4d1098e27c07cd6980cf38]
entity AWSToolkit.Lambda--><polygon fill="#FEFECE" filter="url(#f2ndm6lxfnjx2)" points="851.7711,331.6406,1005.7711,331.6406,1012.7711,355.25,1029.7711,355.25,1029.7711,372.25,851.7711,372.25,851.7711,331.6406" style="stroke:#000000;stroke-width:1.5;"/><line style="stroke:#000000;stroke-width:1.5;" x1="851.7711" x2="1012.7711" y1="355.25" y2="355.25"/><text fill="#000000" font-family="sans-serif" font-size="14" font-weight="bold" lengthAdjust="spacing" textLength="136" x="861.7711" y="349.1738">AWSToolkit.Lambda</text><!--MD5=[b7c55cf73883b1978b2a3d438bc32158]
entity AWSToolkit.Lambda.Interface--><polygon fill="#FEFECE" filter="url(#f2ndm6lxfnjx2)" points="562.2711,230.6406,783.2711,230.6406,790.2711,254.25,807.2711,254.25,807.2711,271.25,562.2711,271.25,562.2711,230.6406" style="stroke:#000000;stroke-width:1.5;"/><line style="stroke:#000000;stroke-width:1.5;" x1="562.2711" x2="790.2711" y1="254.25" y2="254.25"/><text fill="#000000" font-family="sans-serif" font-size="14" font-weight="bold" lengthAdjust="spacing" textLength="203" x="572.2711" y="248.1738">AWSToolkit.Lambda.Interface</text><!--MD5=[a47e168fe56164a8f424c5ffaf61beb9]
entity AWSToolkit.CodeCommitTeamExplorer.v15--><polygon fill="#FEFECE" filter="url(#f2ndm6lxfnjx2)" points="1184.2681,432.6406,1499.2681,432.6406,1506.2681,456.25,1523.2681,456.25,1523.2681,473.25,1184.2681,473.25,1184.2681,432.6406" style="stroke:#000000;stroke-width:1.5;"/><line style="stroke:#000000;stroke-width:1.5;" x1="1184.2681" x2="1506.2681" y1="456.25" y2="456.25"/><text fill="#000000" font-family="sans-serif" font-size="14" font-weight="bold" lengthAdjust="spacing" textLength="297" x="1194.2681" y="450.1738">AWSToolkit.CodeCommitTeamExplorer.v15</text><!--MD5=[6f558ffc685ef5041981fb1a35663664]
entity AWSToolkit.CodeCommitTeamExplorer.v16--><polygon fill="#FEFECE" filter="url(#f2ndm6lxfnjx2)" points="1558.2681,432.6406,1873.2681,432.6406,1880.2681,456.25,1897.2681,456.25,1897.2681,473.25,1558.2681,473.25,1558.2681,432.6406" style="stroke:#000000;stroke-width:1.5;"/><line style="stroke:#000000;stroke-width:1.5;" x1="1558.2681" x2="1880.2681" y1="456.25" y2="456.25"/><text fill="#000000" font-family="sans-serif" font-size="14" font-weight="bold" lengthAdjust="spacing" textLength="297" x="1568.2681" y="450.1738">AWSToolkit.CodeCommitTeamExplorer.v16</text><!--MD5=[a9ac16f69635ba8e52e3c19c22d9a103]
entity AWSToolkit.CodeCommit--><polygon fill="#FEFECE" filter="url(#f2ndm6lxfnjx2)" points="1621.2681,331.6406,1810.2681,331.6406,1817.2681,355.25,1834.2681,355.25,1834.2681,372.25,1621.2681,372.25,1621.2681,331.6406" style="stroke:#000000;stroke-width:1.5;"/><line style="stroke:#000000;stroke-width:1.5;" x1="1621.2681" x2="1817.2681" y1="355.25" y2="355.25"/><text fill="#000000" font-family="sans-serif" font-size="14" font-weight="bold" lengthAdjust="spacing" textLength="171" x="1631.2681" y="349.1738">AWSToolkit.CodeCommit</text><!--MD5=[7ebcaaec4ec5a8c85217bb3b8edcab21]
entity AWSToolkit.CodeCommit.Interface--><polygon fill="#FEFECE" filter="url(#f2ndm6lxfnjx2)" points="1627.7681,230.6406,1883.7681,230.6406,1890.7681,254.25,1907.7681,254.25,1907.7681,271.25,1627.7681,271.25,1627.7681,230.6406" style="stroke:#000000;stroke-width:1.5;"/><line style="stroke:#000000;stroke-width:1.5;" x1="1627.7681" x2="1890.7681" y1="254.25" y2="254.25"/><text fill="#000000" font-family="sans-serif" font-size="14" font-weight="bold" lengthAdjust="spacing" textLength="238" x="1637.7681" y="248.1738">AWSToolkit.CodeCommit.Interface</text><!--MD5=[73ba586bdefe2ce2028c3847d3a0aac2]
entity AWSToolkit.ElasticBeanstalk--><polygon fill="#FEFECE" filter="url(#f2ndm6lxfnjx2)" points="1086.2681,331.6406,1301.2681,331.6406,1308.2681,355.25,1325.2681,355.25,1325.2681,372.25,1086.2681,372.25,1086.2681,331.6406" style="stroke:#000000;stroke-width:1.5;"/><line style="stroke:#000000;stroke-width:1.5;" x1="1086.2681" x2="1308.2681" y1="355.25" y2="355.25"/><text fill="#000000" font-family="sans-serif" font-size="14" font-weight="bold" lengthAdjust="spacing" textLength="197" x="1096.2681" y="349.1738">AWSToolkit.ElasticBeanstalk</text><!--MD5=[dfdae9b24993162f3e5eb32cb6f029c9]
entity AWSToolkit.ElasticBeanstalk.Interface--><polygon fill="#FEFECE" filter="url(#f2ndm6lxfnjx2)" points="1073.7681,230.6406,1355.7681,230.6406,1362.7681,254.25,1379.7681,254.25,1379.7681,271.25,1073.7681,271.25,1073.7681,230.6406" style="stroke:#000000;stroke-width:1.5;"/><line style="stroke:#000000;stroke-width:1.5;" x1="1073.7681" x2="1362.7681" y1="254.25" y2="254.25"/><text fill="#000000" font-family="sans-serif" font-size="14" font-weight="bold" lengthAdjust="spacing" textLength="264" x="1083.7681" y="248.1738">AWSToolkit.ElasticBeanstalk.Interface</text><!--MD5=[da095702bb70556903ec99946e38cc7e]
entity AmazonCLIExtensions--><polygon fill="#FEFECE" filter="url(#f2ndm6lxfnjx2)" points="842.7711,230.6406,1014.7711,230.6406,1021.7711,254.25,1038.7711,254.25,1038.7711,271.25,842.7711,271.25,842.7711,230.6406" style="stroke:#000000;stroke-width:1.5;"/><line style="stroke:#000000;stroke-width:1.5;" x1="842.7711" x2="1021.7711" y1="254.25" y2="254.25"/><text fill="#000000" font-family="sans-serif" font-size="14" font-weight="bold" lengthAdjust="spacing" textLength="154" x="852.7711" y="248.1738">AmazonCLIExtensions</text><!--MD5=[c96738c3868283d0ba75d4fa78fdade1]
entity AWSDeploymentLib--><polygon fill="#FEFECE" filter="url(#f2ndm6lxfnjx2)" points="1415.2681,230.6406,1568.2681,230.6406,1575.2681,254.25,1592.2681,254.25,1592.2681,271.25,1415.2681,271.25,1415.2681,230.6406" style="stroke:#000000;stroke-width:1.5;"/><line style="stroke:#000000;stroke-width:1.5;" x1="1415.2681" x2="1575.2681" y1="254.25" y2="254.25"/><text fill="#000000" font-family="sans-serif" font-size="14" font-weight="bold" lengthAdjust="spacing" textLength="135" x="1425.2681" y="248.1738">AWSDeploymentLib</text><!--MD5=[45b9418b2c13879e752284f77b45c1c4]
reverse link AWSToolkit.VisualStudio.Shared to AWSToolkitPackage--><path d="M555.6921,473.2906 C698.9861,493.1874 919.0091,523.7375 1041.1781,540.7012 " fill="none" id="AWSToolkit.VisualStudio.Shared-backto-AWSToolkitPackage" style="stroke:#A80036;stroke-width:1.0;"/><polygon fill="#A80036" points="550.6271,472.5876,558.9921,477.7864,555.5797,473.2747,560.0914,469.8623,550.6271,472.5876" style="stroke:#A80036;stroke-width:1.0;"/><!--MD5=[b71ae3784d28b3b70c48f73255c41ada]
reverse link AWSToolkit to AWSToolkit.VisualStudio.Shared--><path d="M352.4251,155.0336 C253.7661,162.4276 74.091,182.3206 34.771,230.6406 C6,265.9966 45.1351,351.2736 68.771,372.6406 C100.6939,401.4996 200.2271,422.4016 284.8701,435.5096 " fill="none" id="AWSToolkit-backto-AWSToolkit.VisualStudio.Shared" style="stroke:#A80036;stroke-width:1.0;"/><polygon fill="#A80036" points="357.6421,154.6486,348.3727,151.3202,352.6556,155.0157,348.9601,159.2986,357.6421,154.6486" style="stroke:#A80036;stroke-width:1.0;"/><!--MD5=[f0f001e17a4e30f940daeb52052160c1]
reverse link AWSToolkit.Lambda to AWSToolkitPackage--><path d="M962.8661,376.3986 C1000.6211,416.1406 1076.8881,496.4182 1112.1281,533.5203 " fill="none" id="AWSToolkit.Lambda-backto-AWSToolkitPackage" style="stroke:#A80036;stroke-width:1.0;"/><polygon fill="#A80036" points="959.3351,372.6816,962.6336,381.9617,962.7787,376.3067,968.4337,376.4519,959.3351,372.6816" style="stroke:#A80036;stroke-width:1.0;"/><!--MD5=[bd986e457b1bac5bcc22f82f0489c7c0]
reverse link AWSToolkit.Lambda.Interface to AWSToolkit.Lambda--><path d="M740.1551,273.5586 C784.7891,290.8196 847.0271,314.8876 890.2991,331.6216 " fill="none" id="AWSToolkit.Lambda.Interface-backto-AWSToolkit.Lambda" style="stroke:#A80036;stroke-width:1.0;"/><polygon fill="#A80036" points="735.3481,271.6996,742.2981,278.6779,740.0112,273.504,745.1851,271.217,735.3481,271.6996" style="stroke:#A80036;stroke-width:1.0;"/><!--MD5=[dd5b23409f0ed8108620184cb0b75d93]
reverse link AmazonCLIExtensions to AWSToolkit.Lambda--><path d="M940.7711,276.7756 C940.7711,293.7156 940.7711,315.9046 940.7711,331.6216 " fill="none" id="AmazonCLIExtensions-backto-AWSToolkit.Lambda" style="stroke:#A80036;stroke-width:1.0;"/><polygon fill="#A80036" points="940.7711,271.6996,936.7711,280.6996,940.7711,276.6996,944.7711,280.6996,940.7711,271.6996" style="stroke:#A80036;stroke-width:1.0;"/><!--MD5=[e3b542e726d1b695057f99ab71782f9a]
reverse link AWSToolkit.ElasticBeanstalk to AWSToolkitPackage--><path d="M1192.6181,377.3006 C1184.4981,392.8186 1174.2381,413.5696 1166.7681,432.6406 C1153.1581,467.4066 1141.6681,509.4923 1135.5381,533.6071 " fill="none" id="AWSToolkit.ElasticBeanstalk-backto-AWSToolkitPackage" style="stroke:#A80036;stroke-width:1.0;"/><polygon fill="#A80036" points="1195.0581,372.6606,1187.3245,378.7591,1192.7278,377.0844,1194.4025,382.4876,1195.0581,372.6606" style="stroke:#A80036;stroke-width:1.0;"/><!--MD5=[6297ad79039e7f966ca04598a9b492ba]
reverse link AWSToolkit.ElasticBeanstalk.Interface to AWSToolkit.ElasticBeanstalk--><path d="M1221.5481,276.7756 C1217.9481,293.7156 1213.2481,315.9046 1209.9081,331.6216 " fill="none" id="AWSToolkit.ElasticBeanstalk.Interface-backto-AWSToolkit.ElasticBeanstalk" style="stroke:#A80036;stroke-width:1.0;"/><polygon fill="#A80036" points="1222.6181,271.6996,1216.8389,279.6746,1221.5814,276.591,1224.665,281.3334,1222.6181,271.6996" style="stroke:#A80036;stroke-width:1.0;"/><!--MD5=[e2e59706f967e611933fe8ed60894b90]
reverse link AWSDeploymentLib to AWSToolkit.ElasticBeanstalk--><path d="M1439.9281,273.3496 C1387.9281,290.6246 1315.0981,314.8206 1264.5281,331.6216 " fill="none" id="AWSDeploymentLib-backto-AWSToolkit.ElasticBeanstalk" style="stroke:#A80036;stroke-width:1.0;"/><polygon fill="#A80036" points="1444.8981,271.6996,1435.0969,270.7323,1440.1517,273.2718,1437.6123,278.3266,1444.8981,271.6996" style="stroke:#A80036;stroke-width:1.0;"/><!--MD5=[86b3ac03f3d44190a37a9eb263d07ee5]
reverse link AmazonCLIExtensions to AWSToolkit.ElasticBeanstalk--><path d="M997.8221,273.4536 C1044.0481,290.7226 1108.6381,314.8546 1153.5281,331.6216 " fill="none" id="AmazonCLIExtensions-backto-AWSToolkit.ElasticBeanstalk" style="stroke:#A80036;stroke-width:1.0;"/><polygon fill="#A80036" points="993.1261,271.6996,1000.1564,278.5971,997.8097,273.4499,1002.9569,271.1032,993.1261,271.6996" style="stroke:#A80036;stroke-width:1.0;"/><!--MD5=[43d4064125ddde9fa1e865d392f927a3]
reverse link AWSToolkit to AWSToolkit.ElasticBeanstalk.Interface--><path d="M483.1301,159.1386 C610.7151,174.7516 895.9641,209.6586 1073.7581,231.4156 " fill="none" id="AWSToolkit-backto-AWSToolkit.ElasticBeanstalk.Interface" style="stroke:#A80036;stroke-width:1.0;"/><polygon fill="#A80036" points="477.9161,158.5006,486.3638,163.5639,482.8791,159.1078,487.3352,155.6231,477.9161,158.5006" style="stroke:#A80036;stroke-width:1.0;"/><!--MD5=[cdb4a5033f97f247b578f627b1df8f3c]
reverse link AWSToolkit.CodeCommitTeamExplorer.v15 to AWSToolkitPackage--><path d="M1305.0481,475.7688 C1266.2081,493.0143 1212.2781,516.9557 1174.7381,533.622 " fill="none" id="AWSToolkit.CodeCommitTeamExplorer.v15-backto-AWSToolkitPackage" style="stroke:#A80036;stroke-width:1.0;"/><polygon fill="#A80036" points="1309.7181,473.6996,1299.8692,473.6956,1305.1482,475.7285,1303.1154,481.0074,1309.7181,473.6996" style="stroke:#A80036;stroke-width:1.0;"/><!--MD5=[1e9e73688cfd3aea347f791ad828f02e]
reverse link AWSToolkit.CodeCommitTeamExplorer.v16 to AWSToolkitPackage--><path d="M1605.1081,474.4806 C1490.6981,493.455 1322.7081,521.3119 1220.3881,538.2801 " fill="none" id="AWSToolkit.CodeCommitTeamExplorer.v16-backto-AWSToolkitPackage" style="stroke:#A80036;stroke-width:1.0;"/><polygon fill="#A80036" points="1610.1781,473.6406,1600.6467,471.16,1605.2449,474.4551,1601.9499,479.0532,1610.1781,473.6406" style="stroke:#A80036;stroke-width:1.0;"/><!--MD5=[22c9465e46cb60567e685cf5a1b673ce]
reverse link AWSToolkit.CodeCommit to AWSToolkit.CodeCommitTeamExplorer.v15--><path d="M1648.8281,374.0366 C1583.4981,391.3316 1491.3681,415.7186 1427.5081,432.6216 " fill="none" id="AWSToolkit.CodeCommit-backto-AWSToolkit.CodeCommitTeamExplorer.v15" style="stroke:#A80036;stroke-width:1.0;"/><polygon fill="#A80036" points="1653.8781,372.6996,1644.1522,371.1479,1649.0462,373.9851,1646.209,378.879,1653.8781,372.6996" style="stroke:#A80036;stroke-width:1.0;"/><!--MD5=[348b1d75905d19c15b06d125cf10905a]
reverse link AWSToolkit.CodeCommit to AWSToolkit.CodeCommitTeamExplorer.v16--><path d="M1727.7681,377.7756 C1727.7681,394.7156 1727.7681,416.9046 1727.7681,432.6216 " fill="none" id="AWSToolkit.CodeCommit-backto-AWSToolkit.CodeCommitTeamExplorer.v16" style="stroke:#A80036;stroke-width:1.0;"/><polygon fill="#A80036" points="1727.7681,372.6996,1723.7681,381.6996,1727.7681,377.6996,1731.7681,381.6996,1727.7681,372.6996" style="stroke:#A80036;stroke-width:1.0;"/><!--MD5=[29a6e8140c16eb8c400ba8a01256bdcc]
reverse link AWSToolkit.CodeCommit.Interface to AWSToolkit.CodeCommit--><path d="M1757.9981,276.3386 C1751.1281,293.3326 1742.0581,315.7686 1735.6581,331.6216 " fill="none" id="AWSToolkit.CodeCommit.Interface-backto-AWSToolkit.CodeCommit" style="stroke:#A80036;stroke-width:1.0;"/><polygon fill="#A80036" points="1759.8681,271.6996,1752.7917,278.5498,1757.9976,276.3366,1760.2108,281.5425,1759.8681,271.6996" style="stroke:#A80036;stroke-width:1.0;"/><!--MD5=[0c14059b580d9316d156d972d41c84c9]
reverse link AWSToolkit to AWSToolkit.CodeCommit.Interface--><path d="M483.2531,154.2126 C663.3011,162.9386 1180.9181,189.9076 1609.7681,230.6406 C1615.5481,231.1896 1621.4381,231.7796 1627.3981,232.4006 " fill="none" id="AWSToolkit-backto-AWSToolkit.CodeCommit.Interface" style="stroke:#A80036;stroke-width:1.0;"/><polygon fill="#A80036" points="478.0251,153.9596,486.8215,158.3895,483.0193,154.201,487.2077,150.3989,478.0251,153.9596" style="stroke:#A80036;stroke-width:1.0;"/><!--MD5=[01e06d4f2b163bdce5fd68f8351b79bb]
reverse link AWSToolkit.SQS.Interface to AWSToolkit.SQS--><path d="M162.7711,276.7756 C162.7711,293.7156 162.7711,315.9046 162.7711,331.6216 " fill="none" id="AWSToolkit.SQS.Interface-backto-AWSToolkit.SQS" style="stroke:#A80036;stroke-width:1.0;"/><polygon fill="#A80036" points="162.7711,271.6996,158.7711,280.6996,162.7711,276.6996,166.7711,280.6996,162.7711,271.6996" style="stroke:#A80036;stroke-width:1.0;"/><!--MD5=[7bdf270a68eabf4286660bccafbb37ee]
reverse link AWSToolkit to AWSToolkit.SQS.Interface--><path d="M362.6031,172.5586 C318.1431,189.8196 256.1491,213.8876 213.0461,230.6216 " fill="none" id="AWSToolkit-backto-AWSToolkit.SQS.Interface" style="stroke:#A80036;stroke-width:1.0;"/><polygon fill="#A80036" points="367.3911,170.6996,357.5536,170.2259,362.7297,172.5082,360.4474,177.6842,367.3911,170.6996" style="stroke:#A80036;stroke-width:1.0;"/><!--MD5=[820695dae798d6728498011e4a546136]
reverse link AWSToolkit.SNS.Interface to AWSToolkit.SNS--><path d="M417.7711,276.7756 C417.7711,293.7156 417.7711,315.9046 417.7711,331.6216 " fill="none" id="AWSToolkit.SNS.Interface-backto-AWSToolkit.SNS" style="stroke:#A80036;stroke-width:1.0;"/><polygon fill="#A80036" points="417.7711,271.6996,413.7711,280.6996,417.7711,276.6996,421.7711,280.6996,417.7711,271.6996" style="stroke:#A80036;stroke-width:1.0;"/><!--MD5=[2a8c124d56fa1abc974522f188da65e7]
reverse link AWSToolkit.SQS.Interface to AWSToolkit.SNS--><path d="M217.9391,273.5586 C262.3991,290.8196 324.3931,314.8876 367.4961,331.6216 " fill="none" id="AWSToolkit.SQS.Interface-backto-AWSToolkit.SNS" style="stroke:#A80036;stroke-width:1.0;"/><polygon fill="#A80036" points="213.1511,271.6996,220.093,278.6861,217.8121,273.5094,222.9887,271.2285,213.1511,271.6996" style="stroke:#A80036;stroke-width:1.0;"/><!--MD5=[4bef88f76f1f7aa59b1974b03d187537]
reverse link AWSToolkit.Lambda.Interface to AWSToolkit.SNS--><path d="M627.2891,273.4536 C580.7181,290.7226 515.6341,314.8546 470.4121,331.6216 " fill="none" id="AWSToolkit.Lambda.Interface-backto-AWSToolkit.SNS" style="stroke:#A80036;stroke-width:1.0;"/><polygon fill="#A80036" points="632.0201,271.6996,622.1908,271.0792,627.3322,273.4385,624.973,278.5799,632.0201,271.6996" style="stroke:#A80036;stroke-width:1.0;"/><!--MD5=[ec8dc49e29d33ae9663c2af8780330e9]
reverse link AWSToolkit to AWSToolkit.SNS.Interface--><path d="M417.7711,175.7756 C417.7711,192.7156 417.7711,214.9046 417.7711,230.6216 " fill="none" id="AWSToolkit-backto-AWSToolkit.SNS.Interface" style="stroke:#A80036;stroke-width:1.0;"/><polygon fill="#A80036" points="417.7711,170.6996,413.7711,179.6996,417.7711,175.6996,421.7711,179.6996,417.7711,170.6996" style="stroke:#A80036;stroke-width:1.0;"/><!--MD5=[fcd9e79dcf19963ca17deab9c17b4f4f]
reverse link AWSToolkit.Util to AWSToolkit--><path d="M417.7711,74.7756 C417.7711,91.7156 417.7711,113.9046 417.7711,129.6216 " fill="none" id="AWSToolkit.Util-backto-AWSToolkit" style="stroke:#A80036;stroke-width:1.0;"/><polygon fill="#A80036" points="417.7711,69.6996,413.7711,78.6996,417.7711,74.6996,421.7711,78.6996,417.7711,69.6996" style="stroke:#A80036;stroke-width:1.0;"/><!--MD5=[f2b1295d10d305505651684f014b7a24]
@startuml

title AWS Toolkit Package References

package AWSToolkitPackage
package AWSToolkit.VisualStudio.Shared
package AWSToolkit
package AWSToolkit.Util
package AWSToolkit.SQS
package AWSToolkit.SQS.Interface
package AWSToolkit.SNS
package AWSToolkit.SNS.Interface
package AWSToolkit.Lambda
package AWSToolkit.Lambda.Interface
package AWSToolkit.CodeCommitTeamExplorer.v15
package AWSToolkit.CodeCommitTeamExplorer.v16
package AWSToolkit.CodeCommit
package AWSToolkit.CodeCommit.Interface
package AWSToolkit.ElasticBeanstalk
package AWSToolkit.ElasticBeanstalk.Interface
package AmazonCLIExtensions
package AWSDeploymentLib

AWSToolkitPackage -up-> AWSToolkit.VisualStudio.Shared
AWSToolkit.VisualStudio.Shared -up-> AWSToolkit

AWSToolkitPackage -up-> AWSToolkit.Lambda
AWSToolkit.Lambda -up-> AWSToolkit.Lambda.Interface
AWSToolkit.Lambda -up-> AmazonCLIExtensions

AWSToolkitPackage -up-> AWSToolkit.ElasticBeanstalk
AWSToolkit.ElasticBeanstalk -up-> AWSToolkit.ElasticBeanstalk.Interface
AWSToolkit.ElasticBeanstalk -up-> AWSDeploymentLib
AWSToolkit.ElasticBeanstalk -up-> AmazonCLIExtensions
AWSToolkit.ElasticBeanstalk.Interface -up-> AWSToolkit

AWSToolkitPackage -up-> AWSToolkit.CodeCommitTeamExplorer.v15
AWSToolkitPackage -up-> AWSToolkit.CodeCommitTeamExplorer.v16
AWSToolkit.CodeCommitTeamExplorer.v15 -up-> AWSToolkit.CodeCommit
AWSToolkit.CodeCommitTeamExplorer.v16 -up-> AWSToolkit.CodeCommit
AWSToolkit.CodeCommit -up-> AWSToolkit.CodeCommit.Interface
AWSToolkit.CodeCommit.Interface -up-> AWSToolkit

AWSToolkit.SQS -up-> AWSToolkit.SQS.Interface
AWSToolkit.SQS.Interface -up-> AWSToolkit

AWSToolkit.SNS -up-> AWSToolkit.SNS.Interface
AWSToolkit.SNS -up-> AWSToolkit.SQS.Interface
AWSToolkit.SNS -up-> AWSToolkit.Lambda.Interface
AWSToolkit.SNS.Interface -up-> AWSToolkit

AWSToolkit -up-> AWSToolkit.Util

@enduml

PlantUML version 1.2021.00(Sun Jan 10 02:25:05 PST 2021)
(GPL source distribution)
Java Runtime: OpenJDK Runtime Environment
JVM: OpenJDK 64-Bit Server VM
Default Encoding: Cp1252
Language: en
Country: US
--></g></svg>